<svg xmlns="http://www.w3.org/2000/svg" width="640" height="320" viewBox="0 0 640 320" role="img" aria-labelledby="title desc">
  <title id="title">CarbonLens for Campus Events illustration</title>
  <desc id="desc">An event planning dashboard surrounded by plants and lower-impact choices.</desc>
  <defs>
    <linearGradient id="bg" x1="0" y1="0" x2="1" y2="1">
      <stop stop-color="#0c4033"/>
      <stop offset="1" stop-color="#237a5b"/>
    </linearGradient>
    <linearGradient id="screen" x1="0" y1="0" x2="0" y2="1">
      <stop stop-color="#f8fff4"/>
      <stop offset="1" stop-color="#dcefd7"/>
    </linearGradient>
    <filter id="shadow" x="-30%" y="-30%" width="160%" height="160%">
      <feDropShadow dx="0" dy="12" stdDeviation="12" flood-color="#05251d" flood-opacity=".45"/>
    </filter>
  </defs>
  <rect width="640" height="320" fill="url(#bg)"/>
  <circle cx="87" cy="65" r="110" fill="#b9f16f" opacity=".13"/>
  <circle cx="585" cy="270" r="150" fill="#8fe5c0" opacity=".14"/>
  <g filter="url(#shadow)">
    <rect x="153" y="45" width="334" height="220" rx="14" fill="url(#screen)"/>
    <rect x="176" y="69" width="152" height="22" rx="5" fill="#0c4033"/>
    <rect x="176" y="110" width="126" height="125" rx="7" fill="#fff"/>
    <circle cx="239" cy="167" r="43" fill="none" stroke="#dfe6dd" stroke-width="14"/>
    <path d="M239 124a43 43 0 0 1 39 61" fill="none" stroke="#75bf43" stroke-width="14" stroke-linecap="round"/>
    <path d="M239 167V132" stroke="#0c4033" stroke-width="5" stroke-linecap="round"/>
    <circle cx="239" cy="167" r="6" fill="#ff8066"/>
    <rect x="326" y="110" width="137" height="27" rx="5" fill="#e4f2df"/>
    <rect x="338" y="120" width="72" height="7" rx="4" fill="#237a5b"/>
    <rect x="326" y="147" width="137" height="27" rx="5" fill="#e4f2df"/>
    <rect x="338" y="157" width="99" height="7" rx="4" fill="#75bf43"/>
    <rect x="326" y="184" width="137" height="51" rx="5" fill="#0c4033"/>
    <path d="m343 219 23-18 20 8 24-19 35 12" fill="none" stroke="#b9f16f" stroke-width="5" stroke-linecap="round" stroke-linejoin="round"/>
  </g>
  <g fill="#b9f16f">
    <path d="M83 273c-2-62 20-101 67-119 5 57-17 97-67 119Z"/>
    <path d="M84 272c-40-28-49-66-28-112 38 26 49 64 28 112Z" opacity=".72"/>
    <path d="M529 280c-1-47 16-77 52-91 4 43-13 73-52 91Z"/>
  </g>
  <path d="M84 287c4-55 25-94 63-120M529 292c4-40 21-69 48-91" fill="none" stroke="#fff" stroke-opacity=".65" stroke-width="4"/>
</svg>
